:FULLY-SPECIFIED
:FORCE-ALL-JOINTS-BE-3DOF
:DEGREES
2242
root -0.515287 13.6451 -17.491 911.41 -27.3747 168.378
lfemur 14.0269 -0.134011 -12.8973
ltibia 33.8242 0 0
lfoot -24.9079 38.0132 0
ltoes -42.1434 0 0
rfemur -71.2775 -24.1697 8.01467
rtibia 72.3056 0 0
rfoot -6.81741 15.5926 0
rtoes 2.56013 0 0
lowerback 10.0609 2.54923 -13.5653
upperback -2.82847 1.20747 -2.35269
thorax -9.07984 1.18123 4.84909
lowerneck 2.59421 -12.9719 -13.6851
upperneck 3.0274 -18.0472 11.1974
head 2.62273 -9.06368 4.84407
lclavicle 4.21397e-14 9.37082e-15 0
lhumerus -86.4744 -13.2445 107.068
lradius 109.416 0 0
lwrist 70.7346 0 0
lhand -5.84276 430.425 0
lfingers 7.12502 0 0
lthumb 19.9933 -410.059 0
rclavicle 4.21397e-14 9.37082e-15 0
rhumerus 59.6148 -12.9251 -58.6415
rradius -2.8673 0 0
rwrist 53.2552 0 0
rhand -34.65 -405.456 0
rfingers 7.12502 0 0
rthumb -5.98644 272.392 0
2243
root -0.524186 13.6423 -17.4926 911.553 -27.3068 168.334
lfemur 14.061 -0.173877 -13.0042
ltibia 33.542 0 0
lfoot -24.8195 38.021 0
ltoes -42.3666 0 0
rfemur -71.5059 -24.2097 8.07444
rtibia 72.544 0 0
rfoot -6.94821 15.5949 0
rtoes 2.66318 0 0
lowerback 9.94903 2.54059 -13.6021
upperback -2.85542 1.2037 -2.36747
thorax -9.04503 1.17888 4.8554
lowerneck 2.54136 -12.9659 -13.6383
upperneck 3.04294 -18.0346 11.1889
head 2.63203 -9.05608 4.83257
lclavicle 4.16594e-14 1.01858e-14 0
lhumerus -86.0906 -13.3746 107.001
lradius 109.229 0 0
lwrist 70.5793 0 0
lhand -6.03977 430.003 0
lfingers 7.12502 0 0
lthumb 19.8034 -403.49 0
rclavicle 4.16594e-14 1.01858e-14 0
rhumerus 59.3916 -12.874 -58.6038
rradius -2.4001 0 0
rwrist 52.7633 0 0
rhand -34.3339 -405.385 0
rfingers 7.12502 0 0
rthumb -5.72285 272.742 0
2244
root -0.534523 13.6407 -17.487 911.689 -27.228 168.297
lfemur 14.0761 -0.211311 -13.1237
ltibia 33.2643 0 0
lfoot -24.7264 38.0176 0
ltoes -42.5946 0 0
rfemur -71.7296 -24.2363 8.1389
rtibia 72.7825 0 0
rfoot -7.06917 15.5879 0
rtoes 2.77262 0 0
lowerback 9.83465 2.52924 -13.6383
upperback -2.88132 1.1972 -2.37945
thorax -9.00707 1.17502 4.86505
lowerneck 2.47885 -12.9536 -13.5838
upperneck 3.06966 -18.0133 11.1748
head 2.64474 -9.04417 4.81823
lclavicle 4.1113e-14 1.10314e-14 0
lhumerus -85.5959 -13.5366 106.915
lradius 108.995 0 0
lwrist 70.3591 0 0
lhand -6.2668 429.529 0
lfingers 7.12502 0 0
lthumb 19.5846 -396.456 0
rclavicle 4.1113e-14 1.10314e-14 0
rhumerus 59.1007 -12.8029 -58.5751
rradius -1.80483 0 0
rwrist 52.1538 0 0
rhand -33.921 -405.296 0
rfingers 7.12502 0 0
rthumb -5.37769 273.191 0
2245
root -0.546347 13.6405 -17.4739 911.815 -27.1379 168.265
lfemur 14.0714 -0.246177 -13.2564
ltibia 32.9915 0 0
lfoot -24.6284 38.0026 0
ltoes -42.8275 0 0
rfemur -71.9481 -24.249 8.20819
rtibia 73.0209 0 0
rfoot -7.17982 15.5713 0
rtoes 2.88862 0 0
lowerback 9.7178 2.51511 -13.6738
upperback -2.90612 1.18788 -2.38851
thorax -8.96585 1.16957 4.87817
lowerneck 2.40635 -12.9348 -13.5212
upperneck 3.10798 -17.983 11.1549
head 2.66099 -9.02781 4.80097
lclavicle 4.04984e-14 1.19079e-14 0
lhumerus -84.9863 -13.7314 106.808
lradius 108.711 0 0
lwrist 70.0715 0 0
lhand -6.52486 429.002 0
lfingers 7.12502 0 0
lthumb 19.3358 -388.946 0
rclavicle 4.04984e-14 1.19079e-14 0
rhumerus 58.7398 -12.7111 -58.5557
rradius -1.07693 0 0
rwrist 51.4226 0 0
rhand -33.4078 -405.19 0
rfingers 7.12502 0 0
rthumb -4.94802 273.741 0
2246
root -0.559707 13.6417 -17.4529 911.932 -27.0363 168.24
lfemur 14.0463 -0.278338 -13.4025
ltibia 32.7241 0 0
lfoot -24.5255 37.9757 0
ltoes -43.0654 0 0
rfemur -72.1612 -24.247 8.28243
rtibia 73.259 0 0
rfoot -7.27968 15.5447 0
rtoes 3.01134 0 0
lowerback 9.59848 2.4981 -13.7085
upperback -2.92974 1.17565 -2.39452
thorax -8.92127 1.1625 4.89489
lowerneck 2.32351 -12.9093 -13.4504
upperneck 3.15831 -17.9434 11.1291
head 2.68089 -9.00682 4.78067
lclavicle 3.98133e-14 1.28155e-14 0
lhumerus -84.2579 -13.9603 106.679
lradius 108.376 0 0
lwrist 69.7141 0 0
lhand -6.81496 428.421 0
lfingers 7.12502 0 0
lthumb 19.0562 -380.946 0
rclavicle 3.98133e-14 1.28155e-14 0
rhumerus 58.3064 -12.5978 -58.5461
rradius -0.211839 0 0
rwrist 50.5655 0 0
rhand -32.7909 -405.065 0
rfingers 7.12502 0 0
rthumb -4.43092 274.395 0
2247
root -0.574652 13.6443 -17.4239 912.039 -26.9227 168.222
lfemur 14 -0.30766 -13.5626
ltibia 32.4624 0 0
lfoot -24.4174 37.9363 0
ltoes -43.3081 0 0
rfemur -72.3684 -24.23 8.36178
rtibia 73.4966 0 0
rfoot -7.36828 15.5079 0
rtoes 3.14094 0 0
lowerback 9.47668 2.4781 -13.7425
upperback -2.95213 1.1604 -2.39736
thorax -8.87325 1.15374 4.91533
lowerneck 2.23003 -12.8766 -13.371
upperneck 3.22108 -17.8941 11.0972
head 2.70458 -8.98104 4.75724
lclavicle 3.90555e-14 1.37545e-14 0
lhumerus -83.4066 -14.2244 106.529
lradius 107.989 0 0
lwrist 69.2846 0 0
lhand -7.13811 427.784 0
lfingers 7.12502 0 0
lthumb 18.7447 -372.444 0
rclavicle 3.90555e-14 1.37545e-14 0
rhumerus 57.7982 -12.4623 -58.5464
rradius 0.795004 0 0
rwrist 49.5784 0 0
rhand -32.0668 -404.92 0
rfingers 7.12502 0 0
rthumb -3.82345 275.158 0
2248
root -0.59123 13.6484 -17.3865 912.135 -26.7969 168.212
lfemur 13.9318 -0.334006 -13.737
ltibia 32.2069 0 0
lfoot -24.3041 37.884 0
ltoes -43.5558 0 0
rfemur -72.5694 -24.1974 8.44636
rtibia 73.7336 0 0
rfoot -7.44514 15.4603 0
rtoes 3.27758 0 0
lowerback 9.35241 2.45504 -13.7755
upperback -2.97322 1.14203 -2.3969
thorax -8.82169 1.14324 4.93962
lowerneck 2.12555 -12.8368 -13.2828
upperneck 3.29669 -17.8348 11.0588
head 2.73217 -8.95032 4.73058
lclavicle 3.82228e-14 1.47251e-14 0
lhumerus -82.4286 -14.5249 106.355
lradius 107.547 0 0
lwrist 68.7806 0 0
lhand -7.49532 427.089 0
lfingers 7.12502 0 0
lthumb 18.4003 -363.428 0
rclavicle 3.82228e-14 1.47251e-14 0
rhumerus 57.2126 -12.3039 -58.5572
rradius 1.94816 0 0
rwrist 48.4571 0 0
rhand -31.232 -404.756 0
rfingers 7.12502 0 0
rthumb -3.12267 276.032 0
2249
root -0.60949 13.654 -17.3405 912.22 -26.6583 168.209
lfemur 13.8408 -0.357239 -13.9261
ltibia 31.9578 0 0
lfoot -24.1855 37.8183 0
ltoes -43.8084 0 0
rfemur -72.7638 -24.1485 8.53632
rtibia 73.9698 0 0
rfoot -7.5098 15.4018 0
rtoes 3.42143 0 0
lowerback 9.22567 2.42882 -13.8077
upperback -2.99294 1.12046 -2.39303
thorax -8.7665 1.13095 4.96789
lowerneck 2.00976 -12.7894 -13.1855
upperneck 3.38558 -17.7652 11.014
head 2.76378 -8.9145 4.70058
lclavicle 3.7313e-14 1.57275e-14 0
lhumerus -81.3199 -14.8627 106.158
lradius 107.049 0 0
lwrist 68.1998 0 0
lhand -7.88759 426.334 0
lfingers 7.12502 0 0
lthumb 18.0221 -353.885 0
rclavicle 3.7313e-14 1.57275e-14 0
rhumerus 56.5473 -12.1219 -58.5788
rradius 3.2522 0 0
rwrist 47.1974 0 0
rhand -30.283 -404.57 0
rfingers 7.12502 0 0
rthumb -2.32565 277.022 0
2250
root -0.629481 13.6612 -17.2856 912.294 -26.5066 168.214
lfemur 13.7265 -0.377224 -14.1302
ltibia 31.7156 0 0
lfoot -24.0614 37.739 0
ltoes -44.066 0 0
rfemur -72.9512 -24.0829 8.63178
rtibia 74.205 0 0
rfoot -7.56178 15.3318 0
rtoes 3.57263 0 0
lowerback 9.09646 2.39934 -13.8389
upperback -3.01123 1.09558 -2.38563
thorax -8.70758 1.11681 5.00026
lowerneck 1.88232 -12.7343 -13.0788
upperneck 3.48815 -17.685 10.9623
head 2.79954 -8.87341 4.66715
lclavicle 3.63238e-14 1.6762e-14 0
lhumerus -80.0765 -15.2391 105.936
lradius 106.493 0 0
lwrist 67.5397 0 0
lhand -8.31593 425.519 0
lfingers 7.12502 0 0
lthumb 17.6091 -343.802 0
rclavicle 3.63238e-14 1.6762e-14 0
rhumerus 55.7998 -11.9154 -58.6114
rradius 4.71167 0 0
rwrist 45.7953 0 0
rhand -29.2163 -404.364 0
rfingers 7.12502 0 0
rthumb -1.42946 278.13 0
2251
root -0.651252 13.67 -17.2214 912.356 -26.3415 168.227
lfemur 13.5881 -0.393824 -14.3499
ltibia 31.4807 0 0
lfoot -23.9317 37.6454 0
ltoes -44.3286 0 0
rfemur -73.1313 -24 8.73288
rtibia 74.439 0 0
rfoot -7.60061 15.2501 0
rtoes 3.73136 0 0
lowerback 8.96477 2.36651 -13.8691
upperback -3.02803 1.0673 -2.37456
thorax -8.64483 1.10077 5.03687
lowerneck 1.7429 -12.6713 -12.9626
upperneck 3.60483 -17.5938 10.9036
head 2.83958 -8.82689 4.63019
lclavicle 3.52529e-14 1.78288e-14 0
lhumerus -78.6944 -15.6552 105.69
lradius 105.878 0 0
lwrist 66.798 0 0
lhand -8.78136 424.64 0
lfingers 7.12502 0 0
lthumb 17.1604 -333.167 0
rclavicle 3.52529e-14 1.78288e-14 0
rhumerus 54.9677 -11.6838 -58.6556
rradius 6.33115 0 0
rwrist 44.2466 0 0
rhand -28.0284 -404.136 0
rfingers 7.12502 0 0
rthumb -0.431158 279.36 0
2252
root -0.67485 13.6805 -17.1479 912.406 -26.1626 168.248
lfemur 13.4248 -0.406904 -14.5854
ltibia 31.2534 0 0
lfoot -23.7962 37.5372 0
ltoes -44.5961 0 0
rfemur -73.3037 -23.8992 8.83977
rtibia 74.6717 0 0
rfoot -7.62581 15.1563 0
rtoes 3.89778 0 0
lowerback 8.8306 2.33025 -13.8982
upperback -3.04326 1.03553 -2.35971
thorax -8.57818 1.08278 5.07783
lowerneck 1.59117 -12.6 -12.8365
upperneck 3.73602 -17.4914 10.8377
head 2.88402 -8.77478 4.58959
lclavicle 3.40983e-14 1.89281e-14 0
lhumerus -77.1697 -16.1121 105.417
lradius 105.201 0 0
lwrist 65.9723 0 0
lhand -9.28487 423.697 0
lfingers 7.12502 0 0
lthumb 16.6749 -321.967 0
rclavicle 3.40983e-14 1.89281e-14 0
rhumerus 54.0485 -11.4263 -58.7116
rradius 8.11518 0 0
rwrist 42.5471 0 0
rhand -26.716 -403.885 0
rfingers 7.12502 0 0
rthumb 0.672185 280.716 0
2253
root -0.700326 13.6927 -17.0645 912.443 -25.9695 168.278
lfemur 13.2359 -0.416327 -14.8373
ltibia 31.0341 0 0
lfoot -23.655 37.4139 0
ltoes -44.8687 0 0
rfemur -73.4681 -23.78 8.95258
rtibia 74.9029 0 0
rfoot -7.63692 15.05 0
rtoes 4.07204 0 0
lowerback 8.69396 2.29044 -13.9262
upperback -3.05686 1.00015 -2.34095
thorax -8.50751 1.06278 5.12328
lowerneck 1.4268 -12.5202 -12.7002
upperneck 3.88216 -17.3773 10.7645
head 2.93298 -8.71693 4.54526
lclavicle 3.28576e-14 2.00602e-14 0
lhumerus -75.4984 -16.6109 105.118
lradius 104.462 0 0
lwrist 65.0602 0 0
lhand -9.82749 422.687 0
lfingers 7.12502 0 0
lthumb 16.1517 -310.191 0
rclavicle 3.28576e-14 2.00602e-14 0
rhumerus 53.0399 -11.1421 -58.7798
rradius 10.0683 0 0
rwrist 40.6927 0 0
rhand -25.2754 -403.611 0
rfingers 7.12502 0 0
rthumb 1.8835 282.201 0
2254
root -0.727727 13.7067 -16.9711 912.467 -25.7619 168.316
lfemur 13.0207 -0.421958 -15.1057
ltibia 30.8233 0 0
lfoot -23.5077 37.2751 0
ltoes -45.1463 0 0
rfemur -73.624 -23.6418 9.07144
rtibia 75.1324 0 0
rfoot -7.63345 14.931 0
rtoes 4.25431 0 0
lowerback 8.55483 2.24701 -13.9531
upperback -3.06877 0.961086 -2.31816
thorax -8.43274 1.04071 5.17334
lowerneck 1.24946 -12.4318 -12.5536
upperneck 4.04365 -17.2512 10.6836
head 2.98658 -8.65317 4.49709
lclavicle 3.15287e-14 2.12253e-14 0
lhumerus -73.6765 -17.1528 104.792
lradius 103.659 0 0
lwrist 64.0594 0 0
lhand -10.4102 421.61 0
lfingers 7.12502 0 0
lthumb 15.5898 -297.824 0
rclavicle 3.15287e-14 2.12253e-14 0
rhumerus 51.9395 -10.8307 -58.8605
rradius 12.1952 0 0
rwrist 38.6792 0 0
rhand -23.7033 -403.314 0
rfingers 7.12502 0 0
rthumb 3.20573 283.818 0
